<svg id="SvgjsSvg1001" width="288" height="288" xmlns="http://www.w3.org/2000/svg" version="1.1" xmlns:xlink="http://www.w3.org/1999/xlink" xmlns:svgjs="http://svgjs.com/svgjs"><defs id="SvgjsDefs1002"></defs><g id="SvgjsG1008"><svg xmlns="http://www.w3.org/2000/svg" width="288" height="288" viewBox="0 0 20 20"><path fill="#000000" d="M19,20a1,1,0,0,1-.613-.21l-.094-.083-3.676-3.675A8.9,8.9,0,0,1,9,18a9,9,0,1,1,9-9,8.9,8.9,0,0,1-1.967,5.617l3.675,3.676A1,1,0,0,1,19,20ZM9,2a7,7,0,1,0,7,7A7.008,7.008,0,0,0,9,2Z" class="color6027ce svgShape"></path></svg></g></svg>