<svg id="SvgjsSvg1001" width="288" height="288" xmlns="http://www.w3.org/2000/svg" version="1.1" xmlns:xlink="http://www.w3.org/1999/xlink" xmlns:svgjs="http://svgjs.com/svgjs"><defs id="SvgjsDefs1002"></defs><g id="SvgjsG1008"><svg xmlns="http://www.w3.org/2000/svg" width="288" height="288" viewBox="0 0 29 20"><path fill="#000000" d="M27.55,20H9.828a1.429,1.429,0,1,1,0-2.858H27.55a1.429,1.429,0,1,1,0,2.858Zm0-8.572H4.569a1.428,1.428,0,1,1,0-2.857H27.55a1.428,1.428,0,1,1,0,2.857Zm0-8.571H1.45A1.441,1.441,0,0,1,0,1.428,1.441,1.441,0,0,1,1.45,0h26.1A1.441,1.441,0,0,1,29,1.428,1.441,1.441,0,0,1,27.55,2.857Z" class="color6027ce svgShape"></path></svg></g></svg>