<svg id="SvgjsSvg1001" width="288" height="288" xmlns="http://www.w3.org/2000/svg" version="1.1" xmlns:xlink="http://www.w3.org/1999/xlink" xmlns:svgjs="http://svgjs.com/svgjs"><defs id="SvgjsDefs1002"></defs><g id="SvgjsG1008"><svg xmlns="http://www.w3.org/2000/svg" width="288" height="288" viewBox="0 0 85 85"><g data-name="Group 616" transform="translate(-356 -360)" fill="#000000" class="color000 svgShape"><circle cx="42.5" cy="42.5" r="42.5" fill="#ffffff" data-name="Ellipse 25" transform="translate(356 360)" class="colorfff svgShape"></circle><path fill="#7a1c1a" d="M2.5,40a2.542,2.542,0,0,1-1.741-.7A2.468,2.468,0,0,1,0,37.5V2.5A2.507,2.507,0,0,1,2.5,0,2.465,2.465,0,0,1,3.76.344l30,17.5a2.5,2.5,0,0,1,0,4.317l-30,17.5A2.466,2.466,0,0,1,2.5,40ZM5,6.855V33.148L27.538,20,5,6.855Z" transform="translate(385 382)" class="color6027ce svgShape"></path></g></svg></g></svg>